<svg xmlns="http://www.w3.org/2000/svg" xmlns:xlink="http://www.w3.org/1999/xlink" contentStyleType="text/css" height="917px" preserveAspectRatio="none" style="width:954px;height:917px;background:#1B1B1B;" version="1.1" viewBox="0 0 954 917" width="954px" zoomAndPan="magnify"><defs/><g><rect fill="#1B1B1B" height="917" style="stroke:none;stroke-width:1.0;" width="954" x="0" y="0"/><!--class Producer--><g id="elem_Producer"><rect codeLine="1" fill="#313139" height="162.0781" id="Producer" rx="2.5" ry="2.5" style="stroke:#E7E7E7;stroke-width:0.5;" width="168" x="272" y="23.3"/><ellipse cx="320.25" cy="39.3" fill="#2E5233" rx="11" ry="11" style="stroke:#E7E7E7;stroke-width:1.0;"/><path d="M323.2188,44.9406 Q322.6406,45.2375 322,45.3781 Q321.3594,45.5344 320.6563,45.5344 Q318.1563,45.5344 316.8281,43.8938 Q315.5156,42.2375 315.5156,39.1125 Q315.5156,35.9875 316.8281,34.3313 Q318.1563,32.675 320.6563,32.675 Q321.3594,32.675 322,32.8313 Q322.6563,32.9875 323.2188,33.2844 L323.2188,36.0031 Q322.5938,35.425 322,35.1594 Q321.4063,34.8781 320.7813,34.8781 Q319.4375,34.8781 318.75,35.9563 Q318.0625,37.0188 318.0625,39.1125 Q318.0625,41.2063 318.75,42.2844 Q319.4375,43.3469 320.7813,43.3469 Q321.4063,43.3469 322,43.0813 Q322.5938,42.8 323.2188,42.2219 L323.2188,44.9406 Z " fill="#FFFFFF"/><text fill="#FFFFFF" font-family="sans-serif" font-size="14" lengthAdjust="spacing" textLength="63" x="340.75" y="44.1467">Producer</text><line style="stroke:#E7E7E7;stroke-width:0.5;" x1="273" x2="439" y1="55.3" y2="55.3"/><ellipse cx="283" cy="68.9484" fill="none" rx="3" ry="3" style="stroke:#038048;stroke-width:1.0;"/><text fill="#FFFFFF" font-family="sans-serif" font-size="14" lengthAdjust="spacing" textLength="92" x="292" y="72.2951">name : String</text><polygon fill="none" points="283,80.2453,287,84.2453,283,88.2453,279,84.2453" style="stroke:#B38D22;stroke-width:1.0;"/><text fill="#FFFFFF" font-family="sans-serif" font-size="14" lengthAdjust="spacing" textLength="126" x="292" y="88.592">address : Address</text><rect fill="none" height="6" style="stroke:#C82930;stroke-width:1.0;" width="6" x="280" y="98.5422"/><text fill="#FFFFFF" font-family="sans-serif" font-size="14" lengthAdjust="spacing" textLength="89" x="292" y="104.8889">email : String</text><rect fill="none" height="6" style="stroke:#C82930;stroke-width:1.0;" width="6" x="280" y="114.8391"/><text fill="#FFFFFF" font-family="sans-serif" font-size="14" lengthAdjust="spacing" textLength="98" x="292" y="121.1857">phone : String</text><line style="stroke:#E7E7E7;stroke-width:0.5;" x1="273" x2="439" y1="128.4875" y2="128.4875"/><ellipse cx="283" cy="142.1359" fill="#84BE84" rx="3" ry="3" style="stroke:#038048;stroke-width:1.0;"/><text fill="#FFFFFF" font-family="sans-serif" font-size="14" lengthAdjust="spacing" textLength="84" x="292" y="145.4826">login() : void</text><ellipse cx="283" cy="158.4328" fill="#84BE84" rx="3" ry="3" style="stroke:#038048;stroke-width:1.0;"/><text fill="#FFFFFF" font-family="sans-serif" font-size="14" lengthAdjust="spacing" textLength="104" x="292" y="161.7795">register() : void</text><ellipse cx="283" cy="174.7297" fill="#84BE84" rx="3" ry="3" style="stroke:#038048;stroke-width:1.0;"/><text fill="#FFFFFF" font-family="sans-serif" font-size="14" lengthAdjust="spacing" textLength="142" x="292" y="178.0764">updateProfile() : void</text></g><!--class User--><g id="elem_User"><rect codeLine="11" fill="#313139" height="113.1875" id="User" rx="2.5" ry="2.5" style="stroke:#E7E7E7;stroke-width:0.5;" width="161" x="491.5" y="269.82"/><ellipse cx="551.75" cy="285.82" fill="#2E5233" rx="11" ry="11" style="stroke:#E7E7E7;stroke-width:1.0;"/><path d="M554.7188,291.4606 Q554.1406,291.7575 553.5,291.8981 Q552.8594,292.0544 552.1563,292.0544 Q549.6563,292.0544 548.3281,290.4138 Q547.0156,288.7575 547.0156,285.6325 Q547.0156,282.5075 548.3281,280.8513 Q549.6563,279.195 552.1563,279.195 Q552.8594,279.195 553.5,279.3513 Q554.1563,279.5075 554.7188,279.8044 L554.7188,282.5231 Q554.0938,281.945 553.5,281.6794 Q552.9063,281.3981 552.2813,281.3981 Q550.9375,281.3981 550.25,282.4763 Q549.5625,283.5388 549.5625,285.6325 Q549.5625,287.7263 550.25,288.8044 Q550.9375,289.8669 552.2813,289.8669 Q552.9063,289.8669 553.5,289.6013 Q554.0938,289.32 554.7188,288.7419 L554.7188,291.4606 Z " fill="#FFFFFF"/><text fill="#FFFFFF" font-family="sans-serif" font-size="14" lengthAdjust="spacing" textLength="32" x="572.25" y="290.6667">User</text><line style="stroke:#E7E7E7;stroke-width:0.5;" x1="492.5" x2="651.5" y1="301.82" y2="301.82"/><ellipse cx="502.5" cy="315.4684" fill="none" rx="3" ry="3" style="stroke:#038048;stroke-width:1.0;"/><text fill="#FFFFFF" font-family="sans-serif" font-size="14" lengthAdjust="spacing" textLength="42" x="511.5" y="318.8151">id : int</text><line style="stroke:#E7E7E7;stroke-width:0.5;" x1="492.5" x2="651.5" y1="326.1169" y2="326.1169"/><ellipse cx="502.5" cy="339.7653" fill="#84BE84" rx="3" ry="3" style="stroke:#038048;stroke-width:1.0;"/><text fill="#FFFFFF" font-family="sans-serif" font-size="14" lengthAdjust="spacing" textLength="125" x="511.5" y="343.112">checkUser() : void</text><ellipse cx="502.5" cy="356.0622" fill="#84BE84" rx="3" ry="3" style="stroke:#038048;stroke-width:1.0;"/><text fill="#FFFFFF" font-family="sans-serif" font-size="14" lengthAdjust="spacing" textLength="128" x="511.5" y="359.4089">makeOrder() : void</text><ellipse cx="502.5" cy="372.3591" fill="#84BE84" rx="3" ry="3" style="stroke:#038048;stroke-width:1.0;"/><text fill="#FFFFFF" font-family="sans-serif" font-size="14" lengthAdjust="spacing" textLength="135" x="511.5" y="375.7057">cancelOrder() : void</text></g><!--class Customer--><g id="elem_Customer"><rect codeLine="18" fill="#313139" height="194.6719" id="Customer" rx="2.5" ry="2.5" style="stroke:#E7E7E7;stroke-width:0.5;" width="168" x="488" y="7"/><ellipse cx="533.75" cy="23" fill="#2E5233" rx="11" ry="11" style="stroke:#E7E7E7;stroke-width:1.0;"/><path d="M536.7188,28.6406 Q536.1406,28.9375 535.5,29.0781 Q534.8594,29.2344 534.1563,29.2344 Q531.6563,29.2344 530.3281,27.5938 Q529.0156,25.9375 529.0156,22.8125 Q529.0156,19.6875 530.3281,18.0313 Q531.6563,16.375 534.1563,16.375 Q534.8594,16.375 535.5,16.5313 Q536.1563,16.6875 536.7188,16.9844 L536.7188,19.7031 Q536.0938,19.125 535.5,18.8594 Q534.9063,18.5781 534.2813,18.5781 Q532.9375,18.5781 532.25,19.6563 Q531.5625,20.7188 531.5625,22.8125 Q531.5625,24.9063 532.25,25.9844 Q532.9375,27.0469 534.2813,27.0469 Q534.9063,27.0469 535.5,26.7813 Q536.0938,26.5 536.7188,25.9219 L536.7188,28.6406 Z " fill="#FFFFFF"/><text fill="#FFFFFF" font-family="sans-serif" font-size="14" lengthAdjust="spacing" textLength="68" x="554.25" y="27.8467">Customer</text><line style="stroke:#E7E7E7;stroke-width:0.5;" x1="489" x2="655" y1="39" y2="39"/><ellipse cx="499" cy="52.6484" fill="none" rx="3" ry="3" style="stroke:#038048;stroke-width:1.0;"/><text fill="#FFFFFF" font-family="sans-serif" font-size="14" lengthAdjust="spacing" textLength="92" x="508" y="55.9951">name : String</text><polygon fill="none" points="499,63.9453,503,67.9453,499,71.9453,495,67.9453" style="stroke:#B38D22;stroke-width:1.0;"/><text fill="#FFFFFF" font-family="sans-serif" font-size="14" lengthAdjust="spacing" textLength="126" x="508" y="72.292">address : Address</text><rect fill="none" height="6" style="stroke:#C82930;stroke-width:1.0;" width="6" x="496" y="82.2422"/><text fill="#FFFFFF" font-family="sans-serif" font-size="14" lengthAdjust="spacing" textLength="89" x="508" y="88.5889">email : String</text><rect fill="none" height="6" style="stroke:#C82930;stroke-width:1.0;" width="6" x="496" y="98.5391"/><text fill="#FFFFFF" font-family="sans-serif" font-size="14" lengthAdjust="spacing" textLength="98" x="508" y="104.8857">phone : String</text><line style="stroke:#E7E7E7;stroke-width:0.5;" x1="489" x2="655" y1="112.1875" y2="112.1875"/><ellipse cx="499" cy="125.8359" fill="#84BE84" rx="3" ry="3" style="stroke:#038048;stroke-width:1.0;"/><text fill="#FFFFFF" font-family="sans-serif" font-size="14" lengthAdjust="spacing" textLength="128" x="508" y="129.1826">makeOrder() : void</text><ellipse cx="499" cy="142.1328" fill="#84BE84" rx="3" ry="3" style="stroke:#038048;stroke-width:1.0;"/><text fill="#FFFFFF" font-family="sans-serif" font-size="14" lengthAdjust="spacing" textLength="135" x="508" y="145.4795">cancelOrder() : void</text><ellipse cx="499" cy="158.4297" fill="#84BE84" rx="3" ry="3" style="stroke:#038048;stroke-width:1.0;"/><text fill="#FFFFFF" font-family="sans-serif" font-size="14" lengthAdjust="spacing" textLength="84" x="508" y="161.7764">login() : void</text><ellipse cx="499" cy="174.7266" fill="#84BE84" rx="3" ry="3" style="stroke:#038048;stroke-width:1.0;"/><text fill="#FFFFFF" font-family="sans-serif" font-size="14" lengthAdjust="spacing" textLength="104" x="508" y="178.0732">register() : void</text><ellipse cx="499" cy="191.0234" fill="#84BE84" rx="3" ry="3" style="stroke:#038048;stroke-width:1.0;"/><text fill="#FFFFFF" font-family="sans-serif" font-size="14" lengthAdjust="spacing" textLength="142" x="508" y="194.3701">updateProfile() : void</text></g><!--class Product--><g id="elem_Product"><rect codeLine="32" fill="#313139" height="129.4844" id="Product" rx="2.5" ry="2.5" style="stroke:#E7E7E7;stroke-width:0.5;" width="180" x="266" y="261.67"/><ellipse cx="324.75" cy="277.67" fill="#2E5233" rx="11" ry="11" style="stroke:#E7E7E7;stroke-width:1.0;"/><path d="M327.7188,283.3106 Q327.1406,283.6075 326.5,283.7481 Q325.8594,283.9044 325.1563,283.9044 Q322.6563,283.9044 321.3281,282.2638 Q320.0156,280.6075 320.0156,277.4825 Q320.0156,274.3575 321.3281,272.7013 Q322.6563,271.045 325.1563,271.045 Q325.8594,271.045 326.5,271.2013 Q327.1563,271.3575 327.7188,271.6544 L327.7188,274.3731 Q327.0938,273.795 326.5,273.5294 Q325.9063,273.2481 325.2813,273.2481 Q323.9375,273.2481 323.25,274.3263 Q322.5625,275.3888 322.5625,277.4825 Q322.5625,279.5763 323.25,280.6544 Q323.9375,281.7169 325.2813,281.7169 Q325.9063,281.7169 326.5,281.4513 Q327.0938,281.17 327.7188,280.5919 L327.7188,283.3106 Z " fill="#FFFFFF"/><text fill="#FFFFFF" font-family="sans-serif" font-size="14" lengthAdjust="spacing" textLength="54" x="345.25" y="282.5167">Product</text><line style="stroke:#E7E7E7;stroke-width:0.5;" x1="267" x2="445" y1="293.67" y2="293.67"/><ellipse cx="277" cy="307.3184" fill="none" rx="3" ry="3" style="stroke:#038048;stroke-width:1.0;"/><text fill="#FFFFFF" font-family="sans-serif" font-size="14" lengthAdjust="spacing" textLength="147" x="286" y="310.6651">productName : String</text><polygon fill="none" points="277,318.6153,281,322.6153,277,326.6153,273,322.6153" style="stroke:#B38D22;stroke-width:1.0;"/><text fill="#FFFFFF" font-family="sans-serif" font-size="14" lengthAdjust="spacing" textLength="95" x="286" y="326.962">price : double</text><rect fill="none" height="6" style="stroke:#C82930;stroke-width:1.0;" width="6" x="274" y="336.9122"/><text fill="#FFFFFF" font-family="sans-serif" font-size="14" lengthAdjust="spacing" textLength="90" x="286" y="343.2589">stock : Stock</text><line style="stroke:#E7E7E7;stroke-width:0.5;" x1="267" x2="445" y1="350.5606" y2="350.5606"/><ellipse cx="277" cy="364.2091" fill="#84BE84" rx="3" ry="3" style="stroke:#038048;stroke-width:1.0;"/><text fill="#FFFFFF" font-family="sans-serif" font-size="14" lengthAdjust="spacing" textLength="131" x="286" y="367.5557">addProduct() : void</text><polygon fill="#FFFF44" points="277,375.5059,281,379.5059,277,383.5059,273,379.5059" style="stroke:#B38D22;stroke-width:1.0;"/><text fill="#FFFFFF" font-family="sans-serif" font-size="14" lengthAdjust="spacing" textLength="154" x="286" y="383.8526">updateProduct() : void</text></g><!--class Stock--><g id="elem_Stock"><rect codeLine="40" fill="#313139" height="113.1875" id="Stock" rx="2.5" ry="2.5" style="stroke:#E7E7E7;stroke-width:0.5;" width="177" x="267.5" y="459.31"/><ellipse cx="332.25" cy="475.31" fill="#2E5233" rx="11" ry="11" style="stroke:#E7E7E7;stroke-width:1.0;"/><path d="M335.2188,480.9506 Q334.6406,481.2475 334,481.3881 Q333.3594,481.5444 332.6563,481.5444 Q330.1563,481.5444 328.8281,479.9038 Q327.5156,478.2475 327.5156,475.1225 Q327.5156,471.9975 328.8281,470.3413 Q330.1563,468.685 332.6563,468.685 Q333.3594,468.685 334,468.8413 Q334.6563,468.9975 335.2188,469.2944 L335.2188,472.0131 Q334.5938,471.435 334,471.1694 Q333.4063,470.8881 332.7813,470.8881 Q331.4375,470.8881 330.75,471.9663 Q330.0625,473.0288 330.0625,475.1225 Q330.0625,477.2163 330.75,478.2944 Q331.4375,479.3569 332.7813,479.3569 Q333.4063,479.3569 334,479.0913 Q334.5938,478.81 335.2188,478.2319 L335.2188,480.9506 Z " fill="#FFFFFF"/><text fill="#FFFFFF" font-family="sans-serif" font-size="14" lengthAdjust="spacing" textLength="39" x="352.75" y="480.1567">Stock</text><line style="stroke:#E7E7E7;stroke-width:0.5;" x1="268.5" x2="443.5" y1="491.31" y2="491.31"/><ellipse cx="278.5" cy="504.9584" fill="none" rx="3" ry="3" style="stroke:#038048;stroke-width:1.0;"/><text fill="#FFFFFF" font-family="sans-serif" font-size="14" lengthAdjust="spacing" textLength="144" x="287.5" y="508.3051">quantityAvailable : int</text><ellipse cx="278.5" cy="521.2553" fill="none" rx="3" ry="3" style="stroke:#038048;stroke-width:1.0;"/><text fill="#FFFFFF" font-family="sans-serif" font-size="14" lengthAdjust="spacing" textLength="151" x="287.5" y="524.602">quantityReserved : int</text><line style="stroke:#E7E7E7;stroke-width:0.5;" x1="268.5" x2="443.5" y1="531.9038" y2="531.9038"/><ellipse cx="278.5" cy="545.5522" fill="#84BE84" rx="3" ry="3" style="stroke:#038048;stroke-width:1.0;"/><text fill="#FFFFFF" font-family="sans-serif" font-size="14" lengthAdjust="spacing" textLength="116" x="287.5" y="548.8989">addStock() : void</text><ellipse cx="278.5" cy="561.8491" fill="#84BE84" rx="3" ry="3" style="stroke:#038048;stroke-width:1.0;"/><text fill="#FFFFFF" font-family="sans-serif" font-size="14" lengthAdjust="spacing" textLength="142" x="287.5" y="565.1957">removeStock() : void</text></g><!--class Order--><g id="elem_Order"><rect codeLine="47" fill="#313139" height="129.4844" id="Order" rx="2.5" ry="2.5" style="stroke:#E7E7E7;stroke-width:0.5;" width="185" x="479.5" y="451.16"/><ellipse cx="548.25" cy="467.16" fill="#2E5233" rx="11" ry="11" style="stroke:#E7E7E7;stroke-width:1.0;"/><path d="M551.2188,472.8006 Q550.6406,473.0975 550,473.2381 Q549.3594,473.3944 548.6563,473.3944 Q546.1563,473.3944 544.8281,471.7538 Q543.5156,470.0975 543.5156,466.9725 Q543.5156,463.8475 544.8281,462.1913 Q546.1563,460.535 548.6563,460.535 Q549.3594,460.535 550,460.6913 Q550.6563,460.8475 551.2188,461.1444 L551.2188,463.8631 Q550.5938,463.285 550,463.0194 Q549.4063,462.7381 548.7813,462.7381 Q547.4375,462.7381 546.75,463.8163 Q546.0625,464.8788 546.0625,466.9725 Q546.0625,469.0663 546.75,470.1444 Q547.4375,471.2069 548.7813,471.2069 Q549.4063,471.2069 550,470.9413 Q550.5938,470.66 551.2188,470.0819 L551.2188,472.8006 Z " fill="#FFFFFF"/><text fill="#FFFFFF" font-family="sans-serif" font-size="14" lengthAdjust="spacing" textLength="39" x="568.75" y="472.0067">Order</text><line style="stroke:#E7E7E7;stroke-width:0.5;" x1="480.5" x2="663.5" y1="483.16" y2="483.16"/><rect fill="none" height="6" style="stroke:#C82930;stroke-width:1.0;" width="6" x="487.5" y="493.8084"/><text fill="#FFFFFF" font-family="sans-serif" font-size="14" lengthAdjust="spacing" textLength="77" x="499.5" y="500.1551">date : Date</text><rect fill="none" height="6" style="stroke:#C82930;stroke-width:1.0;" width="6" x="487.5" y="510.1053"/><text fill="#FFFFFF" font-family="sans-serif" font-size="14" lengthAdjust="spacing" textLength="96" x="499.5" y="516.452">status : String</text><line style="stroke:#E7E7E7;stroke-width:0.5;" x1="480.5" x2="663.5" y1="523.7538" y2="523.7538"/><ellipse cx="490.5" cy="537.4022" fill="#84BE84" rx="3" ry="3" style="stroke:#038048;stroke-width:1.0;"/><text fill="#FFFFFF" font-family="sans-serif" font-size="14" lengthAdjust="spacing" textLength="159" x="499.5" y="540.7489">calcSubTotal() : double</text><ellipse cx="490.5" cy="553.6991" fill="#84BE84" rx="3" ry="3" style="stroke:#038048;stroke-width:1.0;"/><text fill="#FFFFFF" font-family="sans-serif" font-size="14" lengthAdjust="spacing" textLength="122" x="499.5" y="557.0457">calcTax() : double</text><ellipse cx="490.5" cy="569.9959" fill="#84BE84" rx="3" ry="3" style="stroke:#038048;stroke-width:1.0;"/><text fill="#FFFFFF" font-family="sans-serif" font-size="14" lengthAdjust="spacing" textLength="132" x="499.5" y="573.3426">calcTotal() : double</text></g><!--class OnlineOrder--><g id="elem_OnlineOrder"><rect codeLine="55" fill="#313139" height="145.7813" id="OnlineOrder" rx="2.5" ry="2.5" style="stroke:#E7E7E7;stroke-width:0.5;" width="206" x="469" y="640.64"/><ellipse cx="526.25" cy="656.64" fill="#2E5233" rx="11" ry="11" style="stroke:#E7E7E7;stroke-width:1.0;"/><path d="M529.2188,662.2806 Q528.6406,662.5775 528,662.7181 Q527.3594,662.8744 526.6563,662.8744 Q524.1563,662.8744 522.8281,661.2338 Q521.5156,659.5775 521.5156,656.4525 Q521.5156,653.3275 522.8281,651.6713 Q524.1563,650.015 526.6563,650.015 Q527.3594,650.015 528,650.1713 Q528.6563,650.3275 529.2188,650.6244 L529.2188,653.3431 Q528.5938,652.765 528,652.4994 Q527.4063,652.2181 526.7813,652.2181 Q525.4375,652.2181 524.75,653.2963 Q524.0625,654.3588 524.0625,656.4525 Q524.0625,658.5463 524.75,659.6244 Q525.4375,660.6869 526.7813,660.6869 Q527.4063,660.6869 528,660.4213 Q528.5938,660.14 529.2188,659.5619 L529.2188,662.2806 Z " fill="#FFFFFF"/><text fill="#FFFFFF" font-family="sans-serif" font-size="14" lengthAdjust="spacing" textLength="83" x="546.75" y="661.4867">OnlineOrder</text><line style="stroke:#E7E7E7;stroke-width:0.5;" x1="470" x2="674" y1="672.64" y2="672.64"/><ellipse cx="480" cy="686.2884" fill="none" rx="3" ry="3" style="stroke:#038048;stroke-width:1.0;"/><text fill="#FFFFFF" font-family="sans-serif" font-size="14" lengthAdjust="spacing" textLength="85" x="489" y="689.6351">quantity : int</text><polygon fill="none" points="480,697.5853,484,701.5853,480,705.5853,476,701.5853" style="stroke:#B38D22;stroke-width:1.0;"/><text fill="#FFFFFF" font-family="sans-serif" font-size="14" lengthAdjust="spacing" textLength="121" x="489" y="705.932">unitPrice : double</text><line style="stroke:#E7E7E7;stroke-width:0.5;" x1="470" x2="674" y1="713.2338" y2="713.2338"/><ellipse cx="480" cy="726.8822" fill="#84BE84" rx="3" ry="3" style="stroke:#038048;stroke-width:1.0;"/><text fill="#FFFFFF" font-family="sans-serif" font-size="14" lengthAdjust="spacing" textLength="159" x="489" y="730.2289">calcSubTotal() : double</text><ellipse cx="480" cy="743.1791" fill="#84BE84" rx="3" ry="3" style="stroke:#038048;stroke-width:1.0;"/><text fill="#FFFFFF" font-family="sans-serif" font-size="14" lengthAdjust="spacing" textLength="122" x="489" y="746.5257">calcTax() : double</text><ellipse cx="480" cy="759.4759" fill="#84BE84" rx="3" ry="3" style="stroke:#038048;stroke-width:1.0;"/><text fill="#FFFFFF" font-family="sans-serif" font-size="14" lengthAdjust="spacing" textLength="132" x="489" y="762.8226">calcTotal() : double</text><ellipse cx="480" cy="775.7728" fill="#84BE84" rx="3" ry="3" style="stroke:#038048;stroke-width:1.0;"/><text fill="#FFFFFF" font-family="sans-serif" font-size="14" lengthAdjust="spacing" textLength="180" x="489" y="779.1195">calcTotalWeight() : double</text></g><!--class Payment--><g id="elem_Payment"><rect codeLine="66" fill="#313139" height="145.7813" id="Payment" rx="2.5" ry="2.5" style="stroke:#E7E7E7;stroke-width:0.5;" width="237" x="710.5" y="640.64"/><ellipse cx="794.75" cy="656.64" fill="#2E5233" rx="11" ry="11" style="stroke:#E7E7E7;stroke-width:1.0;"/><path d="M797.7188,662.2806 Q797.1406,662.5775 796.5,662.7181 Q795.8594,662.8744 795.1563,662.8744 Q792.6563,662.8744 791.3281,661.2338 Q790.0156,659.5775 790.0156,656.4525 Q790.0156,653.3275 791.3281,651.6713 Q792.6563,650.015 795.1563,650.015 Q795.8594,650.015 796.5,650.1713 Q797.1563,650.3275 797.7188,650.6244 L797.7188,653.3431 Q797.0938,652.765 796.5,652.4994 Q795.9063,652.2181 795.2813,652.2181 Q793.9375,652.2181 793.25,653.2963 Q792.5625,654.3588 792.5625,656.4525 Q792.5625,658.5463 793.25,659.6244 Q793.9375,660.6869 795.2813,660.6869 Q795.9063,660.6869 796.5,660.4213 Q797.0938,660.14 797.7188,659.5619 L797.7188,662.2806 Z " fill="#FFFFFF"/><text fill="#FFFFFF" font-family="sans-serif" font-size="14" lengthAdjust="spacing" textLength="60" x="815.25" y="661.4867">Payment</text><line style="stroke:#E7E7E7;stroke-width:0.5;" x1="711.5" x2="946.5" y1="672.64" y2="672.64"/><ellipse cx="721.5" cy="686.2884" fill="none" rx="3" ry="3" style="stroke:#038048;stroke-width:1.0;"/><text fill="#FFFFFF" font-family="sans-serif" font-size="14" lengthAdjust="spacing" textLength="42" x="730.5" y="689.6351">id : int</text><ellipse cx="721.5" cy="702.5853" fill="none" rx="3" ry="3" style="stroke:#038048;stroke-width:1.0;"/><text fill="#FFFFFF" font-family="sans-serif" font-size="14" lengthAdjust="spacing" textLength="114" x="730.5" y="705.932">amount : double</text><polygon fill="none" points="721.5,713.8822,725.5,717.8822,721.5,721.8822,717.5,717.8822" style="stroke:#B38D22;stroke-width:1.0;"/><text fill="#FFFFFF" font-family="sans-serif" font-size="14" lengthAdjust="spacing" textLength="139" x="730.5" y="722.2289">paymentDate : Date</text><rect fill="none" height="6" style="stroke:#C82930;stroke-width:1.0;" width="6" x="718.5" y="732.1791"/><text fill="#FFFFFF" font-family="sans-serif" font-size="14" lengthAdjust="spacing" textLength="211" x="730.5" y="738.5257">paymentMode : PaymentMode</text><line style="stroke:#E7E7E7;stroke-width:0.5;" x1="711.5" x2="946.5" y1="745.8275" y2="745.8275"/><ellipse cx="721.5" cy="759.4759" fill="#84BE84" rx="3" ry="3" style="stroke:#038048;stroke-width:1.0;"/><text fill="#FFFFFF" font-family="sans-serif" font-size="14" lengthAdjust="spacing" textLength="149" x="730.5" y="762.8226">makePayment() : void</text><ellipse cx="721.5" cy="775.7728" fill="#84BE84" rx="3" ry="3" style="stroke:#038048;stroke-width:1.0;"/><text fill="#FFFFFF" font-family="sans-serif" font-size="14" lengthAdjust="spacing" textLength="156" x="730.5" y="779.1195">cancelPayment() : void</text></g><!--class PaymentMode--><g id="elem_PaymentMode"><rect codeLine="75" fill="#313139" height="64.2969" id="PaymentMode" rx="2.5" ry="2.5" style="stroke:#E7E7E7;stroke-width:0.5;" width="196" x="238" y="846.42"/><ellipse cx="282.25" cy="862.42" fill="#2E5233" rx="11" ry="11" style="stroke:#E7E7E7;stroke-width:1.0;"/><path d="M285.2188,868.0606 Q284.6406,868.3575 284,868.4981 Q283.3594,868.6544 282.6563,868.6544 Q280.1563,868.6544 278.8281,867.0138 Q277.5156,865.3575 277.5156,862.2325 Q277.5156,859.1075 278.8281,857.4513 Q280.1563,855.795 282.6563,855.795 Q283.3594,855.795 284,855.9513 Q284.6563,856.1075 285.2188,856.4044 L285.2188,859.1231 Q284.5938,858.545 284,858.2794 Q283.4063,857.9981 282.7813,857.9981 Q281.4375,857.9981 280.75,859.0763 Q280.0625,860.1388 280.0625,862.2325 Q280.0625,864.3263 280.75,865.4044 Q281.4375,866.4669 282.7813,866.4669 Q283.4063,866.4669 284,866.2013 Q284.5938,865.92 285.2188,865.3419 L285.2188,868.0606 Z " fill="#FFFFFF"/><text fill="#FFFFFF" font-family="sans-serif" font-size="14" lengthAdjust="spacing" textLength="99" x="302.75" y="867.2667">PaymentMode</text><line style="stroke:#E7E7E7;stroke-width:0.5;" x1="239" x2="433" y1="878.42" y2="878.42"/><line style="stroke:#E7E7E7;stroke-width:0.5;" x1="239" x2="433" y1="886.42" y2="886.42"/><ellipse cx="249" cy="900.0684" fill="#84BE84" rx="3" ry="3" style="stroke:#038048;stroke-width:1.0;"/><text fill="#FFFFFF" font-family="sans-serif" font-size="14" lengthAdjust="spacing" textLength="170" x="258" y="903.4151">makeTransaction() : void</text></g><!--class BankCard--><g id="elem_BankCard"><rect codeLine="79" fill="#313139" height="64.2969" id="BankCard" rx="2.5" ry="2.5" style="stroke:#E7E7E7;stroke-width:0.5;" width="196" x="7" y="681.38"/><ellipse cx="67.25" cy="697.38" fill="#2E5233" rx="11" ry="11" style="stroke:#E7E7E7;stroke-width:1.0;"/><path d="M70.2188,703.0206 Q69.6406,703.3175 69,703.4581 Q68.3594,703.6144 67.6563,703.6144 Q65.1563,703.6144 63.8281,701.9738 Q62.5156,700.3175 62.5156,697.1925 Q62.5156,694.0675 63.8281,692.4113 Q65.1563,690.755 67.6563,690.755 Q68.3594,690.755 69,690.9113 Q69.6563,691.0675 70.2188,691.3644 L70.2188,694.0831 Q69.5938,693.505 69,693.2394 Q68.4063,692.9581 67.7813,692.9581 Q66.4375,692.9581 65.75,694.0363 Q65.0625,695.0988 65.0625,697.1925 Q65.0625,699.2863 65.75,700.3644 Q66.4375,701.4269 67.7813,701.4269 Q68.4063,701.4269 69,701.1613 Q69.5938,700.88 70.2188,700.3019 L70.2188,703.0206 Z " fill="#FFFFFF"/><text fill="#FFFFFF" font-family="sans-serif" font-size="14" lengthAdjust="spacing" textLength="67" x="87.75" y="702.2267">BankCard</text><line style="stroke:#E7E7E7;stroke-width:0.5;" x1="8" x2="202" y1="713.38" y2="713.38"/><line style="stroke:#E7E7E7;stroke-width:0.5;" x1="8" x2="202" y1="721.38" y2="721.38"/><ellipse cx="18" cy="735.0284" fill="#84BE84" rx="3" ry="3" style="stroke:#038048;stroke-width:1.0;"/><text fill="#FFFFFF" font-family="sans-serif" font-size="14" lengthAdjust="spacing" textLength="170" x="27" y="738.3751">makeTransaction() : void</text></g><!--class Paypal--><g id="elem_Paypal"><rect codeLine="85" fill="#313139" height="64.2969" id="Paypal" rx="2.5" ry="2.5" style="stroke:#E7E7E7;stroke-width:0.5;" width="196" x="238" y="681.38"/><ellipse cx="309.75" cy="697.38" fill="#2E5233" rx="11" ry="11" style="stroke:#E7E7E7;stroke-width:1.0;"/><path d="M312.7188,703.0206 Q312.1406,703.3175 311.5,703.4581 Q310.8594,703.6144 310.1563,703.6144 Q307.6563,703.6144 306.3281,701.9738 Q305.0156,700.3175 305.0156,697.1925 Q305.0156,694.0675 306.3281,692.4113 Q307.6563,690.755 310.1563,690.755 Q310.8594,690.755 311.5,690.9113 Q312.1563,691.0675 312.7188,691.3644 L312.7188,694.0831 Q312.0938,693.505 311.5,693.2394 Q310.9063,692.9581 310.2813,692.9581 Q308.9375,692.9581 308.25,694.0363 Q307.5625,695.0988 307.5625,697.1925 Q307.5625,699.2863 308.25,700.3644 Q308.9375,701.4269 310.2813,701.4269 Q310.9063,701.4269 311.5,701.1613 Q312.0938,700.88 312.7188,700.3019 L312.7188,703.0206 Z " fill="#FFFFFF"/><text fill="#FFFFFF" font-family="sans-serif" font-size="14" lengthAdjust="spacing" textLength="44" x="330.25" y="702.2267">Paypal</text><line style="stroke:#E7E7E7;stroke-width:0.5;" x1="239" x2="433" y1="713.38" y2="713.38"/><line style="stroke:#E7E7E7;stroke-width:0.5;" x1="239" x2="433" y1="721.38" y2="721.38"/><ellipse cx="249" cy="735.0284" fill="#84BE84" rx="3" ry="3" style="stroke:#038048;stroke-width:1.0;"/><text fill="#FFFFFF" font-family="sans-serif" font-size="14" lengthAdjust="spacing" textLength="170" x="258" y="738.3751">makeTransaction() : void</text></g><!--link Customer to User--><g id="link_Customer_User"><path codeLine="30" d="M572,201.87 C572,224.97 572,230.87 572,251.43 " fill="none" id="Customer-to-User" style="stroke:#E7E7E7;stroke-width:1.0;"/><polygon fill="none" points="572,269.43,578,251.43,566,251.43,572,269.43" style="stroke:#E7E7E7;stroke-width:1.0;"/></g><!--link OnlineOrder to Order--><g id="link_OnlineOrder_Order"><path codeLine="64" d="M584.72,640.2 C585.35,620.77 586.0375,617.8823 585.1975,598.9423 " fill="none" id="OnlineOrder-to-Order" style="stroke:#E7E7E7;stroke-width:1.0;"/><polygon fill="none" points="584.4,580.96,579.2034,599.2082,591.1916,598.6765,584.4,580.96" style="stroke:#E7E7E7;stroke-width:1.0;"/></g><!--link Order to OnlineOrder--><g id="link_Order_OnlineOrder"><path codeLine="93" d="M559.6,580.96 C558.76,599.9 558.65,620.77 559.28,640.2 " fill="none" id="Order-OnlineOrder" style="stroke:#E7E7E7;stroke-width:1.0;"/><text fill="#FFFFFF" font-family="sans-serif" font-size="13" lengthAdjust="spacing" textLength="8" x="549.9088" y="600.5163">1</text><text fill="#FFFFFF" font-family="sans-serif" font-size="13" lengthAdjust="spacing" textLength="23" x="533.9715" y="629.5691">1..*</text></g><!--link BankCard to PaymentMode--><g id="link_BankCard_PaymentMode"><path codeLine="83" d="M149.81,746.16 C190.62,774.96 235.8443,806.8801 276.6043,835.6501 " fill="none" id="BankCard-to-PaymentMode" style="stroke:#E7E7E7;stroke-width:1.0;"/><polygon fill="none" points="291.31,846.03,280.0642,830.7482,273.1443,840.552,291.31,846.03" style="stroke:#E7E7E7;stroke-width:1.0;"/></g><!--link Paypal to PaymentMode--><g id="link_Paypal_PaymentMode"><path codeLine="89" d="M336,745.97 C336,774.75 336,799.12 336,827.95 " fill="none" id="Paypal-to-PaymentMode" style="stroke:#E7E7E7;stroke-width:1.0;"/><polygon fill="none" points="336,845.95,342,827.95,330,827.95,336,845.95" style="stroke:#E7E7E7;stroke-width:1.0;"/></g><!--link Producer to Product--><g id="link_Producer_Product"><path codeLine="91" d="M356,185.72 C356,210.65 356,237.77 356,261.43 " fill="none" id="Producer-Product" style="stroke:#E7E7E7;stroke-width:1.0;"/><text fill="#FFFFFF" font-family="sans-serif" font-size="13" lengthAdjust="spacing" textLength="8" x="347.6563" y="205.4308">1</text><text fill="#FFFFFF" font-family="sans-serif" font-size="13" lengthAdjust="spacing" textLength="23" x="331.7422" y="250.5764">1..*</text></g><!--link User to Order--><g id="link_User_Order"><path codeLine="92" d="M572,383.41 C572,404.67 572,429.03 572,450.97 " fill="none" id="User-Order" style="stroke:#E7E7E7;stroke-width:1.0;"/><text fill="#FFFFFF" font-family="sans-serif" font-size="13" lengthAdjust="spacing" textLength="8" x="563.5375" y="402.942">1</text><text fill="#FFFFFF" font-family="sans-serif" font-size="13" lengthAdjust="spacing" textLength="23" x="547.7422" y="440.1219">1..*</text></g><!--link Order to Payment--><g id="link_Order_Payment"><path codeLine="94" d="M656.15,580.96 C681.04,599.9 708.45,620.77 733.98,640.2 " fill="none" id="Order-Payment" style="stroke:#E7E7E7;stroke-width:1.0;"/><text fill="#FFFFFF" font-family="sans-serif" font-size="13" lengthAdjust="spacing" textLength="8" x="656.4155" y="600.5163">1</text><text fill="#FFFFFF" font-family="sans-serif" font-size="13" lengthAdjust="spacing" textLength="8" x="716.5422" y="629.5691">1</text></g><!--link Product to Stock--><g id="link_Product_Stock"><path codeLine="95" d="M356,391.41 C356,413.37 356,437.76 356,459.02 " fill="none" id="Product-Stock" style="stroke:#E7E7E7;stroke-width:1.0;"/><text fill="#FFFFFF" font-family="sans-serif" font-size="13" lengthAdjust="spacing" textLength="8" x="347.5625" y="411.4136">1</text><text fill="#FFFFFF" font-family="sans-serif" font-size="13" lengthAdjust="spacing" textLength="8" x="347.5125" y="448.2482">1</text></g><!--link Payment to PaymentMode--><g id="link_Payment_PaymentMode"><path codeLine="96" d="M710.21,778.95 C704.11,781.6 698.02,784.11 692,786.42 C607.29,818.98 506.8,843.5 434.22,858.86 " fill="none" id="Payment-PaymentMode" style="stroke:#E7E7E7;stroke-width:1.0;"/><text fill="#FFFFFF" font-family="sans-serif" font-size="13" lengthAdjust="spacing" textLength="8" x="694.3438" y="779.7316">1</text><text fill="#FFFFFF" font-family="sans-serif" font-size="13" lengthAdjust="spacing" textLength="8" x="442.0462" y="853.8488">1</text></g><!--SRC=[jLJBJkim4DtdAw9sSm45YIqB91vRk1KKiHxieRNgsBcENLq4_3iJEtOIfmkG81l7S-Pnvenj9g5jovNHt34qvLjHqdUYeCRol7omHgYDDos1SuFaUbvUXZzlhh068QUkLRFLAWi_aNeZr9yZikwruC5cS2DQYoOpkuQ3HQBq8YGEs4THC4_siHs82awmK3Ris1RPheEpZ3NiyA_XCpi3nL1cIAfpxLghwzyKvLkyVax6r5XLlLzuEMFBuHpOs74JjdVpnXiZM6VZsZrB31rIKhRpVhI61AHFdt9ARfd8JR6alSyHQVnpeAomhvTxaXMetdZc4Rn7wcEFa_D0vNsYcM2rtcE6fD9UzhvqrR4aZnjQOfDWNPlDaO5a3-vvhIr8dt4aYmVNyF-mFOyOM2Wf58wvf4v77IwT4dOrdyKFCfeYJoWsMvin7dFrHyh_fZC5hpKgU_Z6GgqTOPDgooP4tEJQz_PRpJlxQjWDjwat7hnFC-mZe-WJlmt9rWPK2ymAhGu4NO7QNOFXNub8lbwUCVE1GGFoAwbwptcYz8OlpXO4qt9wUho8Lxhmh-OK2cCASykGOQ8vleXLY_XOZA1mzUF4vp4Tqqy0]--></g></svg>